HIERARCHY
ROOT RootJoint
{
    OFFSET   0.000000   0.000000   0.000000
    CHANNELS 6 Xposition Yposition Zposition Xrotation Yrotation Zrotation
    JOINT pelvis_lowerback
    {
        OFFSET   0.000000   0.093605   0.000000
        CHANNELS 3 Xrotation Yrotation Zrotation
        JOINT lowerback_torso
        {
            OFFSET   0.000000   0.100000   0.000000
            CHANNELS 3 Xrotation Yrotation Zrotation
            JOINT torso_head
            {
                OFFSET   0.000000   0.282350   0.000000
                CHANNELS 3 Xrotation Yrotation Zrotation
                End Site
                {
                    OFFSET   0.000000   0.192650   0.000000
                }
            }
            JOINT rTorso_Clavicle
            {
                OFFSET  -0.001000   0.157500   0.000000
                CHANNELS 3 Xrotation Yrotation Zrotation
                JOINT rShoulder
                {
                    OFFSET  -0.117647   0.000000   0.000000
                    CHANNELS 3 Xrotation Yrotation Zrotation
                    JOINT rElbow
                    {
                        OFFSET  -0.245000   0.000000   0.000000
                        CHANNELS 3 Xrotation Yrotation Zrotation
                        JOINT rWrist
                        {
                            OFFSET  -0.240000   0.000000   0.000000
                            CHANNELS 3 Xrotation Yrotation Zrotation
                            End Site
                            {
                                OFFSET  -0.116353  -0.002500   0.000000
                            }
                        }
                    }
                }
            }
            JOINT lTorso_Clavicle
            {
                OFFSET   0.001000   0.157500   0.000000
                CHANNELS 3 Xrotation Yrotation Zrotation
                JOINT lShoulder
                {
                    OFFSET   0.117647   0.000000   0.000000
                    CHANNELS 3 Xrotation Yrotation Zrotation
                    JOINT lElbow
                    {
                        OFFSET   0.245000   0.000000   0.000000
                        CHANNELS 3 Xrotation Yrotation Zrotation
                        JOINT lWrist
                        {
                            OFFSET   0.240000   0.000000   0.000000
                            CHANNELS 3 Xrotation Yrotation Zrotation
                            End Site
                            {
                                OFFSET   0.116353  -0.002500   0.000000
                            }
                        }
                    }
                }
            }
        }
    }
    JOINT rHip
    {
        OFFSET  -0.100000  -0.051395   0.000000
        CHANNELS 3 Xrotation Yrotation Zrotation
        JOINT rKnee
        {
            OFFSET   0.000000  -0.410000   0.000000
            CHANNELS 3 Xrotation Yrotation Zrotation
            JOINT rAnkle
            {
                OFFSET   0.000000  -0.390000   0.000000
                CHANNELS 3 Xrotation Yrotation Zrotation
                JOINT rToeJoint
                {
                    OFFSET   0.000000  -0.050000   0.130000
                    CHANNELS 3 Xrotation Yrotation Zrotation
                    End Site
                    {
                        OFFSET  -0.010000   0.002000   0.060000
                    }
                }
            }
        }
    }
    JOINT lHip
    {
        OFFSET   0.100000  -0.051395   0.000000
        CHANNELS 3 Xrotation Yrotation Zrotation
        JOINT lKnee
        {
            OFFSET   0.000000  -0.410000   0.000000
            CHANNELS 3 Xrotation Yrotation Zrotation
            JOINT lAnkle
            {
                OFFSET   0.000000  -0.390000   0.000000
                CHANNELS 3 Xrotation Yrotation Zrotation
                JOINT lToeJoint
                {
                    OFFSET   0.000000  -0.050000   0.130000
                    CHANNELS 3 Xrotation Yrotation Zrotation
                    End Site
                    {
                        OFFSET   0.010000   0.002000   0.060000
                    }
                }
            }
        }
    }
}
MOTION
Frames: 7
Frame Time:   0.008333
 -2.190935   0.576705   4.181105  -9.751735  18.605238   0.226749  41.751087  -2.399555   0.762261   5.304395   0.730942   2.100220 -14.802610  -1.278751  -0.167287  -0.455575   6.009646  18.278851   3.414822   5.220322  39.604439  -0.000480  32.879385   0.001663   0.817862   3.049642 -11.133494   2.832757  -2.701169 -14.099671   3.300897  -0.303683 -42.413143  -0.000807 -39.302058   0.000695  -3.152063  -3.236585  10.419390 -58.869119  -5.841692  -9.420301 107.558842  -0.007348  -0.000450 -36.304700  -8.186181   0.100807  -4.503048  -0.000833   0.004185 -51.186289   2.985154   6.208031 111.112957   0.004313   0.007163 -50.738204   1.387270   2.889651  -0.736175   0.000781  -0.000189
 -2.190116   0.572057   4.185576  -9.838149  18.467220   0.450058  42.648429  -2.417462   0.797554   5.144539   0.661674   2.033681 -15.269731  -1.098677  -0.177005  -0.817778   6.073978  18.259277   3.001036   5.285670  39.649272  -0.000176  33.067105   0.001614   0.722559   2.982271 -11.221079   2.468079  -2.780063 -14.003983   3.043826  -0.148568 -42.268150  -0.001078 -39.418695   0.000533  -3.228408  -3.098503  10.596162 -58.967250  -5.661217  -9.530049 108.645007  -0.006991  -0.000950 -37.163725  -8.256927   0.000045  -4.661440  -0.000784   0.003616 -50.942437   3.189706   6.278680 111.937321   0.003448   0.006449 -51.729557   1.329898   2.854988  -0.722928   0.000618  -0.000152
 -2.189341   0.568235   4.190099  -9.856956  18.352970   0.672070  43.428384  -2.434629   0.841269   4.960730   0.584531   1.970284 -15.701251  -0.924640  -0.191602  -1.180542   6.157805  18.238110   2.597572   5.369506  39.692525   0.000069  33.255710   0.001536   0.640243   2.961175 -11.286150   2.079163  -2.896978 -13.887887   2.766334  -0.041671 -42.111195  -0.001435 -39.551219   0.000352  -3.281647  -3.056173  10.765475 -59.018426  -5.473037  -9.631895 109.585137  -0.006340  -0.001110 -38.006895  -8.336525  -0.102355  -4.777606  -0.000721   0.003064 -50.675351   3.404656   6.329357 112.605584   0.002796   0.005847 -52.650443   1.257523   2.815687  -0.708494   0.000487  -0.000121
 -2.188617   0.565113   4.194706  -9.807432  18.260802   0.876094  44.100851  -2.456479   0.896740   4.738667   0.504736   1.921990 -16.105671  -0.761296  -0.204461  -1.534619   6.249836  18.213309   2.210364   5.460670  39.731185   0.000241  33.439529   0.001474   0.570444   2.984901 -11.344068   1.689398  -3.028445 -13.762148   2.485941   0.037850 -41.952095  -0.001802 -39.688076   0.000159  -3.318421  -3.093281  10.943577 -59.049582  -5.290567  -9.722739 110.410911  -0.005568  -0.001083 -38.790481  -8.411197  -0.203602  -4.929251  -0.000709   0.002632 -50.399819   3.611127   6.369634 113.146431   0.002270   0.005315 -53.516950   1.175705   2.775112  -0.691204   0.000379  -0.000097
 -2.187944   0.562599   4.199414  -9.698372  18.186888   1.061927  44.675624  -2.482690   0.961887   4.484545   0.424338   1.888591 -16.487146  -0.608607  -0.214471  -1.875059   6.343773  18.184484   1.841898   5.553611  39.764999   0.000351  33.616454   0.001429   0.510091   3.040054 -11.402159   1.309643  -3.164444 -13.630780   2.211003   0.099832 -41.793931  -0.002139 -39.824235  -0.000032  -3.343745  -3.181475  11.129774 -59.064796  -5.117205  -9.803059 111.140793  -0.004783  -0.000957 -39.512114  -8.478865  -0.302669  -5.131981  -0.000755   0.002295 -50.115388   3.805233   6.401947 113.577479   0.001830   0.004818 -54.339177   1.088768   2.733344  -0.670723   0.000288  -0.000078
 -2.187327   0.560618   4.204229  -9.536902  18.128761   1.231475  45.162350  -2.512097   1.034463   4.205470   0.344667   1.867934 -16.847708  -0.466053  -0.221757  -2.198937   6.435789  18.151680   1.493433   5.644975  39.794159   0.000415  33.785325   0.001391   0.456912   3.116092 -11.462936   0.945392  -3.299417 -13.496066   1.945820   0.150014 -41.638294  -0.002425 -39.957024  -0.000212  -3.360878  -3.301859  11.321810 -59.066303  -4.953902  -9.873873 111.787843  -0.004039  -0.000782 -40.175984  -8.539389  -0.398947  -5.387901  -0.000849   0.002015 -49.822674   3.985959   6.427227 113.911828   0.001460   0.004335 -55.123052   0.999165   2.690413  -0.646921   0.000210  -0.000063
 -2.186773   0.559106   4.209146  -9.328669  18.085010   1.386811  45.570550  -2.543602   1.112496   3.907755   0.266630   1.857809 -17.188705  -0.333028  -0.226667  -2.504780   6.523624  18.115090   1.165352   5.732752  39.818931   0.000447  33.945567   0.001351   0.409319   3.205566 -11.527143   0.599403  -3.430121 -13.359589   1.692626   0.192026 -41.486173  -0.002649 -40.084996  -0.000372  -3.371922  -3.442573  11.517912 -59.056234  -4.800786  -9.936121 112.362164  -0.003360  -0.000586 -40.786993  -8.593039  -0.492057  -5.695379  -0.000976   0.001760 -49.523452   4.152997   6.446035 114.160007   0.001151   0.003855 -55.872134   0.908204   2.646494  -0.619722   0.000141  -0.000050
